<svg id="svg" version="1.1" xmlns="http://www.w3.org/2000/svg" xmlns:xlink="http://www.w3.org/1999/xlink" width="400" height="102.06489675516224" viewBox="0, 0, 400,102.06489675516224"><g id="svgg"><path id="path4" d="M11.000 32.583 L 11.000 43.833 40.000 43.833 L 69.000 43.833 69.000 32.583 L 69.000 21.333 40.000 21.333 L 11.000 21.333 11.000 32.583 M66.068 23.655 C 66.426 23.740,66.914 24.004,67.151 24.242 L 67.583 24.674 67.631 32.173 C 67.684 40.404,67.680 40.445,66.681 41.157 C 65.961 41.669,15.097 41.759,14.091 41.250 C 12.729 40.561,12.750 40.695,12.750 32.583 C 12.750 26.040,12.776 25.370,13.045 24.877 C 13.691 23.694,13.047 23.759,24.993 23.667 C 45.884 23.505,65.413 23.499,66.068 23.655 " stroke="none" fill="#85c445" fill-rule="evenodd"></path><path id="path0" d="M143.250 33.947 C 142.700 33.986,142.179 34.089,142.092 34.176 C 142.005 34.262,141.686 34.333,141.383 34.333 C 141.081 34.333,140.833 34.408,140.833 34.500 C 140.833 34.592,140.613 34.667,140.343 34.667 C 140.074 34.667,139.807 34.742,139.750 34.833 C 139.693 34.925,139.502 35.000,139.325 35.000 C 138.921 35.000,137.667 35.534,137.667 35.706 C 137.667 35.776,137.517 35.833,137.333 35.833 C 137.150 35.833,137.000 35.902,137.000 35.987 C 137.000 36.071,136.785 36.187,136.523 36.245 C 136.260 36.303,135.888 36.496,135.696 36.675 C 135.504 36.854,135.303 37.000,135.249 37.000 C 135.196 37.000,134.964 37.188,134.735 37.417 C 134.506 37.646,134.253 37.833,134.174 37.833 C 133.972 37.833,131.667 40.102,131.667 40.301 C 131.667 40.391,131.460 40.688,131.208 40.962 C 130.432 41.804,130.000 42.396,130.000 42.620 C 130.000 42.737,129.925 42.833,129.833 42.833 C 129.742 42.833,129.667 42.983,129.667 43.167 C 129.667 43.350,129.609 43.500,129.539 43.500 C 129.385 43.500,128.833 44.737,128.833 45.084 C 128.833 45.221,128.758 45.333,128.667 45.333 C 128.575 45.333,128.500 45.446,128.500 45.583 C 128.500 45.721,128.425 45.833,128.333 45.833 C 128.242 45.833,128.167 45.984,128.167 46.169 C 128.167 46.354,128.095 46.635,128.007 46.794 C 127.793 47.182,127.333 49.357,127.333 49.981 C 127.333 50.256,127.258 50.527,127.167 50.583 C 127.075 50.640,127.000 51.319,127.000 52.093 C 127.000 52.920,126.931 53.500,126.833 53.500 C 126.730 53.500,126.667 54.444,126.667 56.000 C 126.667 57.556,126.730 58.500,126.833 58.500 C 126.931 58.500,127.000 59.056,127.000 59.833 C 127.000 60.611,127.069 61.167,127.167 61.167 C 127.258 61.167,127.333 61.436,127.333 61.764 C 127.333 62.446,127.853 64.555,128.042 64.639 C 128.110 64.669,128.167 64.876,128.167 65.097 C 128.167 65.319,128.242 65.500,128.333 65.500 C 128.425 65.500,128.500 65.646,128.500 65.823 C 128.500 66.001,128.575 66.193,128.667 66.250 C 128.758 66.307,128.833 66.468,128.833 66.610 C 128.833 66.992,129.357 68.045,129.700 68.353 C 129.865 68.501,130.000 68.710,130.000 68.817 C 130.000 69.078,130.479 69.805,131.042 70.399 C 131.294 70.665,131.500 70.943,131.500 71.017 C 131.500 71.091,131.696 71.334,131.935 71.557 C 132.386 71.977,132.443 72.033,133.094 72.690 C 133.627 73.228,133.965 73.500,134.098 73.500 C 134.160 73.500,134.332 73.633,134.480 73.796 C 134.826 74.176,135.598 74.667,135.850 74.667 C 135.957 74.667,136.166 74.802,136.314 74.967 C 136.625 75.314,137.677 75.833,138.067 75.833 C 138.213 75.833,138.333 75.908,138.333 76.000 C 138.333 76.092,138.521 76.167,138.750 76.167 C 138.979 76.167,139.167 76.242,139.167 76.333 C 139.167 76.425,139.354 76.500,139.583 76.500 C 139.813 76.500,140.000 76.575,140.000 76.667 C 140.000 76.758,140.210 76.833,140.467 76.833 C 140.723 76.833,141.007 76.907,141.096 76.996 C 141.186 77.086,141.913 77.209,142.713 77.271 C 143.512 77.332,144.167 77.446,144.167 77.525 C 144.167 77.603,145.667 77.667,147.500 77.667 C 149.611 77.667,150.833 77.606,150.833 77.500 C 150.833 77.408,151.190 77.329,151.625 77.323 C 152.328 77.315,152.903 77.229,154.542 76.890 C 154.794 76.838,155.000 76.729,155.000 76.648 C 155.000 76.566,155.188 76.500,155.417 76.500 C 155.646 76.500,155.833 76.425,155.833 76.333 C 155.833 76.242,155.979 76.167,156.157 76.167 C 156.335 76.167,156.527 76.092,156.583 76.000 C 156.640 75.908,156.802 75.833,156.943 75.833 C 157.325 75.833,158.378 75.310,158.686 74.967 C 158.834 74.802,159.069 74.667,159.207 74.667 C 159.346 74.667,159.553 74.554,159.667 74.417 C 159.781 74.279,159.943 74.167,160.027 74.167 C 160.111 74.167,160.383 73.981,160.632 73.754 C 160.880 73.527,161.445 73.021,161.888 72.629 C 162.969 71.672,163.500 71.116,163.500 70.944 C 163.500 70.865,163.714 70.600,163.977 70.355 C 164.239 70.110,164.506 69.743,164.571 69.538 C 164.636 69.334,164.759 69.167,164.845 69.167 C 164.930 69.167,165.000 69.017,165.000 68.833 C 165.000 68.650,165.075 68.500,165.167 68.500 C 165.258 68.500,165.333 68.387,165.333 68.250 C 165.333 68.112,165.408 68.000,165.500 68.000 C 165.592 68.000,165.667 67.850,165.667 67.667 C 165.667 67.483,165.738 67.333,165.826 67.333 C 165.913 67.333,166.034 67.071,166.094 66.750 C 166.155 66.429,166.270 66.167,166.352 66.167 C 166.433 66.167,166.500 66.053,166.500 65.914 C 166.500 65.776,166.587 65.494,166.693 65.289 C 167.104 64.493,167.149 64.340,167.261 63.352 C 167.325 62.792,167.442 62.333,167.522 62.333 C 167.601 62.333,167.667 61.996,167.667 61.583 C 167.667 61.171,167.742 60.833,167.833 60.833 C 167.930 60.833,168.000 60.281,168.000 59.510 C 168.000 58.782,168.075 58.140,168.167 58.083 C 168.264 58.023,168.333 57.054,168.333 55.740 C 168.333 54.358,168.270 53.500,168.167 53.500 C 168.069 53.500,168.000 52.920,168.000 52.093 C 168.000 51.319,167.925 50.640,167.833 50.583 C 167.742 50.527,167.667 50.185,167.667 49.823 C 167.667 49.462,167.600 49.167,167.519 49.167 C 167.438 49.167,167.320 48.679,167.256 48.083 C 167.192 47.487,167.071 47.000,166.987 47.000 C 166.902 47.000,166.833 46.813,166.833 46.583 C 166.833 46.354,166.758 46.167,166.667 46.167 C 166.575 46.167,166.500 45.979,166.500 45.750 C 166.500 45.521,166.425 45.333,166.333 45.333 C 166.242 45.333,166.167 45.221,166.167 45.084 C 166.167 44.737,165.615 43.500,165.461 43.500 C 165.391 43.500,165.333 43.350,165.333 43.167 C 165.333 42.983,165.272 42.833,165.197 42.833 C 165.123 42.833,164.897 42.540,164.695 42.182 C 164.494 41.824,164.105 41.291,163.831 40.998 C 163.557 40.705,163.333 40.416,163.333 40.357 C 163.331 40.142,161.626 38.500,161.404 38.500 C 161.353 38.500,161.063 38.237,160.761 37.917 C 160.458 37.596,160.096 37.333,159.956 37.333 C 159.817 37.333,159.662 37.228,159.613 37.100 C 159.564 36.972,158.862 36.544,158.053 36.149 C 157.245 35.754,156.544 35.375,156.495 35.306 C 156.446 35.238,156.090 35.132,155.703 35.070 C 155.317 35.008,155.000 34.892,155.000 34.812 C 155.000 34.732,154.737 34.667,154.417 34.667 C 154.096 34.667,153.833 34.592,153.833 34.500 C 153.833 34.408,153.586 34.333,153.283 34.333 C 152.981 34.333,152.645 34.245,152.537 34.137 C 152.337 33.937,145.384 33.794,143.250 33.947 M86.375 34.754 L 86.000 35.155 86.000 55.766 L 86.000 76.378 86.458 76.772 C 86.915 77.164,86.936 77.166,91.216 77.166 L 95.515 77.167 95.924 76.758 L 96.333 76.348 96.333 70.334 C 96.333 65.767,96.383 64.259,96.542 64.068 C 96.725 63.848,97.058 63.505,97.727 62.852 C 97.831 62.749,98.771 61.804,99.815 60.750 C 101.903 58.641,101.928 58.626,102.078 59.311 C 102.136 59.573,102.330 59.945,102.508 60.137 C 102.687 60.329,102.833 60.564,102.833 60.660 C 102.833 60.755,102.899 60.833,102.979 60.833 C 103.059 60.833,103.167 61.040,103.218 61.292 C 103.269 61.544,103.466 61.916,103.655 62.118 C 103.845 62.320,104.000 62.602,104.000 62.743 C 104.000 62.884,104.067 63.000,104.149 63.000 C 104.230 63.000,104.340 63.170,104.392 63.378 C 104.444 63.586,104.640 63.921,104.827 64.121 C 105.014 64.322,105.167 64.602,105.167 64.743 C 105.167 64.884,105.242 65.000,105.333 65.000 C 105.425 65.000,105.500 65.080,105.500 65.179 C 105.500 65.277,105.612 65.470,105.750 65.607 C 105.888 65.745,106.000 66.002,106.000 66.179 C 106.000 66.355,106.075 66.500,106.167 66.500 C 106.258 66.500,106.333 66.612,106.333 66.750 C 106.333 66.887,106.408 67.000,106.500 67.000 C 106.592 67.000,106.667 67.112,106.667 67.250 C 106.667 67.387,106.736 67.500,106.820 67.500 C 106.904 67.500,107.023 67.725,107.083 68.000 C 107.144 68.275,107.262 68.500,107.347 68.500 C 107.431 68.500,107.500 68.598,107.500 68.719 C 107.500 68.839,107.631 69.086,107.792 69.268 C 107.952 69.450,108.306 70.027,108.577 70.550 C 108.849 71.072,109.131 71.500,109.202 71.500 C 109.274 71.500,109.333 71.612,109.333 71.750 C 109.333 71.887,109.408 72.000,109.500 72.000 C 109.592 72.000,109.667 72.145,109.667 72.321 C 109.667 72.498,109.779 72.755,109.917 72.893 C 110.054 73.030,110.167 73.223,110.167 73.321 C 110.167 73.420,110.242 73.500,110.333 73.500 C 110.425 73.500,110.500 73.650,110.500 73.833 C 110.500 74.017,110.567 74.167,110.649 74.167 C 110.730 74.167,110.844 74.354,110.902 74.583 C 110.959 74.813,111.080 75.000,111.170 75.000 C 111.260 75.000,111.333 75.150,111.333 75.333 C 111.333 75.517,111.408 75.667,111.500 75.667 C 111.592 75.667,111.667 75.779,111.667 75.917 C 111.667 76.054,111.734 76.167,111.817 76.167 C 111.900 76.167,112.046 76.392,112.142 76.667 L 112.316 77.167 118.144 77.167 L 123.972 77.167 124.193 76.667 C 124.315 76.392,124.471 76.167,124.541 76.167 C 124.610 76.167,124.667 76.032,124.667 75.867 C 124.667 75.494,124.294 74.670,124.125 74.668 C 124.056 74.667,124.000 74.554,124.000 74.417 C 124.000 74.279,123.930 74.167,123.845 74.167 C 123.759 74.167,123.636 73.998,123.571 73.792 C 123.506 73.585,123.313 73.295,123.143 73.147 C 122.973 72.999,122.833 72.755,122.833 72.605 C 122.833 72.456,122.763 72.333,122.678 72.333 C 122.592 72.333,122.469 72.165,122.404 71.958 C 122.339 71.752,122.146 71.462,121.976 71.314 C 121.806 71.166,121.667 70.966,121.667 70.869 C 121.667 70.773,121.610 70.669,121.542 70.639 C 121.473 70.608,121.275 70.306,121.103 69.966 C 120.930 69.627,120.649 69.198,120.478 69.015 C 120.307 68.831,120.167 68.602,120.167 68.507 C 120.167 68.411,120.106 68.333,120.032 68.333 C 119.958 68.333,119.765 68.033,119.603 67.667 C 119.442 67.300,119.240 67.000,119.155 67.000 C 119.070 67.000,119.000 66.887,119.000 66.750 C 119.000 66.612,118.926 66.500,118.837 66.500 C 118.747 66.500,118.626 66.313,118.568 66.083 C 118.511 65.854,118.397 65.667,118.315 65.667 C 118.234 65.667,118.167 65.568,118.167 65.448 C 118.167 65.328,118.026 65.078,117.854 64.894 C 117.682 64.709,117.489 64.395,117.426 64.196 C 117.363 63.996,117.241 63.833,117.155 63.833 C 117.070 63.833,117.000 63.721,117.000 63.585 C 117.000 63.448,116.850 63.242,116.667 63.128 C 116.483 63.013,116.333 62.788,116.333 62.627 C 116.333 62.465,116.263 62.333,116.178 62.333 C 116.092 62.333,115.972 62.175,115.911 61.982 C 115.809 61.660,115.533 61.264,115.070 60.771 C 114.971 60.666,114.838 60.375,114.775 60.123 C 114.712 59.872,114.587 59.667,114.497 59.667 C 114.407 59.667,114.333 59.571,114.333 59.453 C 114.333 59.336,114.183 59.132,114.000 59.000 C 113.817 58.868,113.667 58.624,113.667 58.458 C 113.667 58.292,113.554 58.113,113.417 58.060 C 113.279 58.008,113.167 57.839,113.167 57.686 C 113.167 57.532,113.017 57.299,112.833 57.167 C 112.650 57.035,112.500 56.830,112.500 56.713 C 112.500 56.596,112.433 56.500,112.351 56.500 C 112.270 56.500,112.156 56.313,112.098 56.083 C 112.041 55.854,111.920 55.667,111.830 55.667 C 111.740 55.667,111.667 55.544,111.667 55.395 C 111.667 55.245,111.527 55.001,111.357 54.853 C 111.187 54.705,110.994 54.415,110.929 54.208 C 110.864 54.002,110.741 53.833,110.655 53.833 C 110.570 53.833,110.500 53.721,110.500 53.585 C 110.500 53.448,110.350 53.242,110.167 53.128 C 109.983 53.013,109.833 52.797,109.833 52.647 C 109.833 52.497,109.721 52.281,109.583 52.167 C 109.446 52.053,109.333 51.862,109.333 51.743 C 109.333 51.625,109.242 51.497,109.130 51.460 C 109.017 51.422,109.631 50.675,110.505 49.785 C 111.373 48.901,112.178 48.082,112.294 47.964 C 112.410 47.846,112.952 47.308,113.499 46.767 C 114.046 46.226,114.889 45.338,115.372 44.793 C 115.855 44.248,117.925 42.103,119.973 40.026 L 123.695 36.250 123.595 35.618 C 123.375 34.242,123.839 34.333,117.043 34.333 C 113.295 34.333,111.000 34.394,111.000 34.493 C 111.000 34.581,110.700 34.931,110.333 35.270 C 109.967 35.609,109.667 35.952,109.667 36.031 C 109.667 36.110,109.065 36.792,108.329 37.546 C 107.593 38.300,106.843 39.069,106.662 39.256 C 106.481 39.442,106.333 39.643,106.333 39.702 C 106.333 39.761,105.621 40.534,104.750 41.421 C 103.879 42.308,103.167 43.098,103.167 43.178 C 103.167 43.258,102.492 43.991,101.667 44.806 C 100.842 45.622,100.167 46.340,100.167 46.402 C 100.167 46.500,99.717 47.026,99.157 47.583 C 98.986 47.753,98.660 48.088,97.731 49.047 C 97.445 49.342,97.080 49.790,96.920 50.042 C 96.365 50.913,96.333 50.519,96.333 42.826 L 96.333 35.152 95.924 34.742 L 95.515 34.333 91.133 34.344 L 86.750 34.354 86.375 34.754 M174.030 34.751 L 173.667 35.169 173.667 55.720 L 173.667 76.271 174.134 76.719 L 174.602 77.167 178.967 77.167 L 183.333 77.167 183.333 73.593 C 183.333 71.391,183.397 69.980,183.500 69.917 C 183.607 69.850,183.667 66.939,183.667 61.730 C 183.667 54.172,183.786 52.194,184.077 54.913 C 184.141 55.509,184.262 56.039,184.346 56.091 C 184.431 56.144,184.500 56.444,184.500 56.760 C 184.500 57.075,184.575 57.333,184.667 57.333 C 184.758 57.333,184.833 57.596,184.833 57.917 C 184.833 58.237,184.901 58.500,184.983 58.500 C 185.065 58.500,185.186 59.025,185.250 59.667 C 185.314 60.308,185.435 60.833,185.517 60.833 C 185.599 60.833,185.667 61.096,185.667 61.417 C 185.667 61.737,185.742 62.000,185.833 62.000 C 185.925 62.000,186.000 62.262,186.000 62.583 C 186.000 62.904,186.061 63.167,186.136 63.167 C 186.211 63.167,186.362 63.710,186.473 64.375 C 186.825 66.483,186.867 66.668,187.018 66.761 C 187.100 66.812,187.167 67.111,187.167 67.427 C 187.167 67.742,187.242 68.000,187.333 68.000 C 187.425 68.000,187.500 68.258,187.500 68.573 C 187.500 68.889,187.566 69.188,187.647 69.238 C 187.728 69.288,187.846 69.816,187.910 70.413 C 187.974 71.009,188.095 71.539,188.180 71.591 C 188.264 71.644,188.333 71.944,188.333 72.260 C 188.333 72.575,188.408 72.833,188.500 72.833 C 188.592 72.833,188.667 73.091,188.667 73.407 C 188.667 73.722,188.731 74.020,188.810 74.069 C 188.888 74.117,188.995 74.518,189.047 74.959 C 189.100 75.400,189.241 76.078,189.363 76.466 L 189.583 77.172 194.416 77.127 L 199.250 77.083 199.404 76.042 C 199.489 75.469,199.620 75.000,199.696 75.000 C 199.771 75.000,199.833 74.737,199.833 74.417 C 199.833 74.096,199.908 73.833,200.000 73.833 C 200.092 73.833,200.167 73.575,200.167 73.260 C 200.167 72.944,200.236 72.644,200.320 72.591 C 200.405 72.539,200.526 72.010,200.590 71.415 C 200.653 70.820,200.772 70.333,200.853 70.333 C 200.934 70.333,201.000 70.075,201.000 69.760 C 201.000 69.444,201.075 69.140,201.167 69.083 C 201.258 69.027,201.333 68.764,201.333 68.500 C 201.333 68.236,201.408 67.973,201.500 67.917 C 201.592 67.860,201.667 67.560,201.667 67.250 C 201.667 66.940,201.736 66.644,201.820 66.591 C 201.905 66.539,202.026 66.010,202.090 65.415 C 202.153 64.820,202.272 64.333,202.353 64.333 C 202.434 64.333,202.500 64.075,202.500 63.760 C 202.500 63.444,202.567 63.145,202.648 63.095 C 202.730 63.044,202.839 62.759,202.892 62.460 C 203.298 60.143,203.433 59.510,203.542 59.402 C 203.610 59.334,203.667 59.028,203.667 58.722 C 203.667 58.417,203.742 58.167,203.833 58.167 C 203.925 58.167,204.000 57.904,204.000 57.583 C 204.000 57.262,204.067 57.000,204.150 57.000 C 204.232 57.000,204.352 56.475,204.417 55.833 C 204.481 55.192,204.601 54.667,204.684 54.667 C 204.766 54.667,204.833 54.404,204.833 54.083 C 204.833 53.762,204.908 53.500,205.000 53.500 C 205.109 53.500,205.167 57.163,205.167 64.157 C 205.167 71.082,205.225 74.850,205.333 74.917 C 205.425 74.973,205.500 75.503,205.500 76.093 L 205.500 77.167 209.853 77.167 L 214.206 77.167 214.684 76.625 L 215.161 76.083 215.164 55.725 L 215.167 35.368 214.713 34.850 L 214.259 34.333 207.479 34.333 L 200.698 34.333 200.590 35.208 C 200.530 35.690,200.419 36.233,200.343 36.417 C 200.267 36.600,200.113 37.087,200.002 37.500 C 199.890 37.912,199.732 38.422,199.650 38.631 C 199.568 38.841,199.453 39.422,199.394 39.923 C 199.336 40.424,199.223 40.833,199.144 40.833 C 199.065 40.833,199.000 41.096,199.000 41.417 C 199.000 41.737,198.925 42.000,198.833 42.000 C 198.742 42.000,198.667 42.262,198.667 42.583 C 198.667 42.904,198.606 43.167,198.532 43.167 C 198.406 43.167,198.105 44.438,197.891 45.875 C 197.840 46.219,197.731 46.500,197.649 46.500 C 197.567 46.500,197.500 46.762,197.500 47.083 C 197.500 47.404,197.425 47.667,197.333 47.667 C 197.242 47.667,197.167 47.929,197.167 48.250 C 197.167 48.571,197.099 48.833,197.016 48.833 C 196.934 48.833,196.814 49.283,196.750 49.833 C 196.686 50.383,196.566 50.833,196.484 50.833 C 196.401 50.833,196.333 51.096,196.333 51.417 C 196.333 51.737,196.258 52.000,196.167 52.000 C 196.075 52.000,196.000 52.258,196.000 52.573 C 196.000 52.889,195.932 53.189,195.850 53.240 C 195.767 53.291,195.647 53.783,195.583 54.333 C 195.519 54.884,195.400 55.376,195.317 55.427 C 195.234 55.478,195.167 55.740,195.167 56.010 C 195.167 56.279,195.092 56.500,195.000 56.500 C 194.908 56.500,194.833 56.762,194.833 57.083 C 194.833 57.404,194.758 57.667,194.667 57.667 C 194.575 57.667,194.500 57.929,194.500 58.250 C 194.500 59.284,194.204 58.870,194.083 57.667 C 194.019 57.025,193.899 56.500,193.816 56.500 C 193.734 56.500,193.667 56.237,193.667 55.917 C 193.667 55.596,193.592 55.333,193.500 55.333 C 193.408 55.333,193.333 55.108,193.333 54.833 C 193.333 54.558,193.267 54.333,193.186 54.333 C 193.105 54.333,192.987 53.847,192.923 53.252 C 192.859 52.657,192.738 52.127,192.654 52.075 C 192.569 52.023,192.500 51.764,192.500 51.500 C 192.500 51.236,192.425 50.973,192.333 50.917 C 192.242 50.860,192.167 50.593,192.167 50.323 C 192.167 50.054,192.099 49.833,192.016 49.833 C 191.934 49.833,191.814 49.383,191.750 48.833 C 191.686 48.283,191.566 47.791,191.484 47.740 C 191.401 47.689,191.333 47.389,191.333 47.073 C 191.333 46.758,191.258 46.500,191.167 46.500 C 191.075 46.500,191.000 46.279,191.000 46.010 C 191.000 45.740,190.925 45.473,190.833 45.417 C 190.742 45.360,190.667 45.093,190.667 44.823 C 190.667 44.554,190.600 44.333,190.519 44.333 C 190.438 44.333,190.320 43.847,190.256 43.252 C 190.193 42.657,190.071 42.127,189.987 42.075 C 189.902 42.023,189.833 41.764,189.833 41.500 C 189.833 41.236,189.758 40.973,189.667 40.917 C 189.575 40.860,189.500 40.635,189.500 40.417 C 189.500 40.198,189.431 39.977,189.346 39.925 C 189.262 39.873,189.141 39.343,189.077 38.748 C 189.013 38.153,188.895 37.667,188.814 37.667 C 188.733 37.667,188.667 37.404,188.667 37.083 C 188.667 36.762,188.592 36.500,188.500 36.500 C 188.408 36.500,188.333 36.279,188.333 36.010 C 188.333 35.740,188.258 35.473,188.167 35.417 C 188.075 35.360,188.000 35.093,188.000 34.823 L 188.000 34.333 181.197 34.333 L 174.393 34.333 174.030 34.751 M333.542 34.630 C 332.510 34.656,331.667 34.740,331.667 34.817 C 331.667 34.894,331.143 35.008,330.504 35.072 C 329.864 35.135,329.297 35.257,329.244 35.343 C 329.191 35.429,329.016 35.500,328.857 35.500 C 328.492 35.500,327.670 35.875,327.668 36.042 C 327.667 36.110,327.479 36.167,327.249 36.167 C 326.799 36.167,325.349 36.889,324.831 37.371 C 324.657 37.534,324.431 37.667,324.329 37.667 C 323.910 37.667,320.167 41.095,320.167 41.479 C 320.167 41.560,320.054 41.719,319.917 41.833 C 319.779 41.947,319.667 42.164,319.667 42.314 C 319.667 42.464,319.517 42.680,319.333 42.795 C 319.150 42.909,319.000 43.115,319.000 43.251 C 319.000 43.388,318.928 43.500,318.841 43.500 C 318.753 43.500,318.633 43.762,318.572 44.083 C 318.512 44.404,318.396 44.667,318.315 44.667 C 318.233 44.667,318.167 44.817,318.167 45.000 C 318.167 45.183,318.110 45.334,318.042 45.335 C 317.840 45.337,317.495 46.193,317.387 46.958 C 317.333 47.348,317.223 47.667,317.144 47.667 C 317.065 47.667,317.000 47.929,317.000 48.250 C 317.000 48.571,316.925 48.833,316.833 48.833 C 316.742 48.833,316.667 49.171,316.667 49.583 C 316.667 49.996,316.600 50.333,316.519 50.333 C 316.297 50.333,316.137 52.423,316.130 55.417 C 316.123 58.338,316.288 60.500,316.519 60.500 C 316.600 60.500,316.667 60.837,316.667 61.250 C 316.667 61.663,316.742 62.000,316.833 62.000 C 316.925 62.000,317.000 62.262,317.000 62.583 C 317.000 62.904,317.065 63.167,317.143 63.167 C 317.222 63.167,317.333 63.555,317.389 64.029 C 317.445 64.503,317.568 64.968,317.662 65.062 C 317.756 65.156,317.833 65.368,317.833 65.533 C 317.833 65.698,317.908 65.833,318.000 65.833 C 318.092 65.833,318.167 66.021,318.167 66.250 C 318.167 66.479,318.242 66.667,318.333 66.667 C 318.425 66.667,318.500 66.787,318.500 66.933 C 318.500 67.224,318.996 68.366,319.181 68.500 C 319.244 68.546,319.503 68.958,319.758 69.417 C 320.012 69.875,320.358 70.371,320.526 70.520 C 320.695 70.668,320.833 70.846,320.833 70.916 C 320.833 71.227,324.093 74.167,324.438 74.167 C 324.564 74.167,324.667 74.240,324.667 74.330 C 324.667 74.420,324.854 74.541,325.083 74.598 C 325.313 74.656,325.500 74.770,325.500 74.851 C 325.500 74.933,325.650 75.000,325.833 75.000 C 326.017 75.000,326.167 75.057,326.167 75.126 C 326.167 75.315,326.991 75.639,327.792 75.765 C 328.181 75.826,328.500 75.941,328.500 76.021 C 328.500 76.101,328.762 76.167,329.083 76.167 C 329.404 76.167,329.667 76.242,329.667 76.333 C 329.667 76.425,330.004 76.500,330.417 76.500 C 330.829 76.500,331.167 76.575,331.167 76.667 C 331.167 76.773,332.580 76.833,335.073 76.833 C 337.498 76.833,339.019 76.770,339.083 76.667 C 339.140 76.575,339.482 76.500,339.843 76.500 C 340.204 76.500,340.500 76.425,340.500 76.333 C 340.500 76.242,340.762 76.167,341.083 76.167 C 341.404 76.167,341.667 76.098,341.667 76.015 C 341.667 75.931,341.966 75.812,342.332 75.750 C 342.699 75.688,343.041 75.569,343.092 75.485 C 343.144 75.402,343.332 75.333,343.510 75.333 C 343.688 75.333,343.833 75.258,343.833 75.167 C 343.833 75.075,343.946 75.000,344.083 75.000 C 344.221 75.000,344.333 74.930,344.333 74.845 C 344.333 74.759,344.501 74.636,344.705 74.571 C 345.341 74.369,346.717 73.299,347.795 72.167 C 349.114 70.782,349.333 70.516,349.333 70.301 C 349.333 70.176,349.483 69.965,349.667 69.833 C 349.850 69.701,350.000 69.503,350.000 69.394 C 350.000 69.284,350.057 69.169,350.126 69.139 C 350.307 69.060,351.167 67.348,351.167 67.068 C 351.167 66.939,351.242 66.833,351.333 66.833 C 351.425 66.833,351.500 66.683,351.500 66.500 C 351.500 66.317,351.570 66.167,351.655 66.167 C 351.740 66.167,351.861 65.754,351.924 65.250 C 351.987 64.746,352.105 64.333,352.186 64.333 C 352.267 64.333,352.333 64.161,352.333 63.950 C 352.333 63.739,352.418 63.482,352.522 63.378 C 352.840 63.060,352.553 62.667,352.005 62.667 C 351.727 62.667,351.500 62.592,351.500 62.500 C 351.500 62.408,351.242 62.333,350.927 62.333 C 350.611 62.333,350.310 62.264,350.258 62.180 C 350.206 62.095,349.675 61.974,349.079 61.910 C 348.483 61.846,347.954 61.728,347.905 61.647 C 347.639 61.217,346.500 61.495,346.500 61.990 C 346.500 62.260,346.425 62.527,346.333 62.583 C 346.242 62.640,346.167 62.869,346.167 63.093 C 346.167 63.317,346.108 63.500,346.035 63.500 C 345.963 63.500,345.757 63.987,345.577 64.583 C 345.397 65.179,345.194 65.667,345.125 65.667 C 345.056 65.667,345.000 65.779,345.000 65.917 C 345.000 66.054,344.941 66.167,344.869 66.167 C 344.797 66.167,344.598 66.405,344.426 66.696 C 343.698 67.928,342.594 69.032,341.363 69.759 C 341.072 69.931,340.833 70.131,340.833 70.203 C 340.833 70.275,340.721 70.333,340.583 70.333 C 340.446 70.333,340.333 70.400,340.333 70.481 C 340.333 70.562,339.996 70.679,339.583 70.741 C 339.171 70.803,338.833 70.924,338.833 71.010 C 338.833 71.096,338.571 71.167,338.250 71.167 C 337.929 71.167,337.667 71.242,337.667 71.333 C 337.667 71.558,332.556 71.558,332.417 71.333 C 332.360 71.242,332.098 71.167,331.833 71.167 C 331.569 71.167,331.309 71.096,331.256 71.010 C 331.203 70.923,330.823 70.802,330.413 70.741 C 330.002 70.679,329.667 70.562,329.667 70.481 C 329.667 70.400,329.551 70.333,329.410 70.333 C 329.268 70.333,328.987 70.178,328.785 69.989 C 328.582 69.799,328.213 69.603,327.963 69.552 C 327.714 69.502,327.470 69.336,327.422 69.184 C 327.374 69.032,327.173 68.797,326.975 68.662 C 326.777 68.527,326.458 68.239,326.266 68.021 C 326.074 67.804,325.716 67.408,325.470 67.141 C 325.224 66.875,324.925 66.434,324.804 66.162 C 324.684 65.889,324.529 65.667,324.459 65.667 C 324.390 65.667,324.333 65.517,324.333 65.333 C 324.333 65.150,324.258 65.000,324.167 65.000 C 324.075 65.000,324.000 64.887,324.000 64.750 C 324.000 64.612,323.930 64.500,323.844 64.500 C 323.757 64.500,323.636 64.162,323.575 63.750 C 323.513 63.337,323.396 63.000,323.314 63.000 C 323.233 63.000,323.167 62.737,323.167 62.417 C 323.167 62.096,323.092 61.833,323.000 61.833 C 322.908 61.833,322.833 61.577,322.833 61.264 C 322.833 60.951,322.740 60.663,322.625 60.625 C 322.465 60.572,322.417 59.446,322.417 55.750 C 322.417 52.054,322.465 50.928,322.625 50.875 C 322.740 50.837,322.833 50.554,322.833 50.246 C 322.833 49.938,322.908 49.640,323.000 49.583 C 323.092 49.527,323.167 49.260,323.167 48.990 C 323.167 48.721,323.233 48.500,323.314 48.500 C 323.396 48.500,323.513 48.163,323.575 47.750 C 323.636 47.337,323.757 47.000,323.844 47.000 C 323.930 47.000,324.000 46.885,324.000 46.743 C 324.000 46.602,324.262 46.097,324.583 45.621 C 324.904 45.144,325.167 44.700,325.167 44.635 C 325.167 44.413,327.703 42.000,327.936 42.000 C 328.063 42.000,328.167 41.926,328.167 41.837 C 328.167 41.747,328.354 41.626,328.583 41.568 C 328.813 41.511,329.000 41.397,329.000 41.315 C 329.000 41.234,329.150 41.167,329.333 41.167 C 329.517 41.167,329.667 41.092,329.667 41.000 C 329.667 40.908,329.812 40.833,329.990 40.833 C 330.168 40.833,330.360 40.758,330.417 40.667 C 330.473 40.575,330.696 40.500,330.913 40.500 C 331.129 40.500,331.337 40.406,331.375 40.292 C 331.428 40.133,332.354 40.083,335.250 40.083 C 338.146 40.083,339.072 40.133,339.125 40.292 C 339.163 40.406,339.376 40.500,339.597 40.500 C 339.819 40.500,340.000 40.561,340.000 40.636 C 340.000 40.710,340.262 40.874,340.583 41.000 C 340.904 41.126,341.167 41.285,341.167 41.353 C 341.167 41.422,341.327 41.529,341.524 41.591 C 341.932 41.720,343.833 43.560,343.833 43.825 C 343.833 43.921,343.897 44.000,343.975 44.000 C 344.053 44.000,344.256 44.337,344.426 44.750 C 344.596 45.163,344.795 45.500,344.868 45.500 C 344.940 45.500,345.000 45.650,345.000 45.833 C 345.000 46.017,345.072 46.167,345.159 46.167 C 345.247 46.167,345.368 46.430,345.428 46.752 C 345.488 47.074,345.604 47.378,345.686 47.428 C 345.767 47.479,345.833 47.665,345.833 47.843 C 345.833 48.102,345.950 48.167,346.417 48.167 C 346.738 48.167,347.000 48.104,347.000 48.027 C 347.000 47.904,347.498 47.806,350.208 47.393 C 350.552 47.341,350.833 47.231,350.833 47.149 C 350.833 47.067,351.058 47.000,351.333 47.000 C 351.794 47.000,351.833 46.954,351.833 46.417 C 351.833 46.096,351.758 45.833,351.667 45.833 C 351.575 45.833,351.500 45.646,351.500 45.417 C 351.500 45.188,351.425 45.000,351.333 45.000 C 351.242 45.000,351.167 44.813,351.167 44.583 C 351.167 44.354,351.092 44.167,351.000 44.167 C 350.908 44.167,350.833 44.055,350.833 43.918 C 350.833 43.570,350.282 42.333,350.127 42.333 C 350.057 42.333,350.000 42.221,350.000 42.085 C 350.000 41.948,349.850 41.742,349.667 41.628 C 349.483 41.513,349.333 41.300,349.333 41.153 C 349.333 40.737,347.604 38.796,346.600 38.083 C 346.341 37.900,346.031 37.656,345.910 37.542 C 345.789 37.427,345.627 37.333,345.549 37.333 C 345.471 37.333,345.299 37.183,345.167 37.000 C 345.035 36.817,344.793 36.667,344.630 36.667 C 344.467 36.667,344.333 36.587,344.333 36.490 C 344.333 36.393,344.264 36.357,344.178 36.410 C 344.093 36.462,343.976 36.429,343.918 36.336 C 343.861 36.243,343.668 36.167,343.490 36.167 C 343.312 36.167,343.166 36.110,343.165 36.042 C 343.164 35.876,342.342 35.500,341.981 35.500 C 341.823 35.500,341.669 35.424,341.638 35.331 C 341.607 35.238,341.076 35.115,340.458 35.057 C 339.839 34.999,339.333 34.892,339.333 34.819 C 339.333 34.664,336.228 34.563,333.542 34.630 M223.541 55.708 L 223.583 76.417 226.458 76.462 L 229.333 76.508 229.333 68.254 L 229.333 60.000 234.573 60.000 C 237.887 60.000,239.852 59.939,239.917 59.833 C 239.977 59.736,240.918 59.667,242.177 59.667 C 243.363 59.667,244.333 59.601,244.333 59.522 C 244.333 59.442,244.933 59.324,245.667 59.260 C 246.400 59.196,247.000 59.074,247.000 58.989 C 247.000 58.903,247.151 58.833,247.336 58.833 C 247.520 58.833,247.801 58.767,247.961 58.685 C 248.120 58.604,248.700 58.326,249.250 58.068 C 249.800 57.809,250.371 57.463,250.520 57.299 C 250.668 57.134,250.856 57.000,250.938 57.000 C 251.019 57.000,251.348 56.697,251.668 56.326 C 251.988 55.955,252.419 55.471,252.625 55.250 C 252.831 55.029,253.000 54.742,253.000 54.611 C 253.000 54.481,253.112 54.281,253.250 54.167 C 253.387 54.053,253.500 53.856,253.500 53.730 C 253.500 53.603,253.575 53.500,253.667 53.500 C 253.758 53.500,253.833 53.350,253.833 53.167 C 253.833 52.983,253.908 52.833,254.000 52.833 C 254.092 52.833,254.167 52.646,254.167 52.417 C 254.167 52.188,254.238 52.000,254.325 52.000 C 254.412 52.000,254.535 51.548,254.597 50.996 C 254.659 50.444,254.776 49.952,254.855 49.903 C 255.061 49.776,255.040 44.711,254.833 44.583 C 254.742 44.527,254.667 44.241,254.667 43.948 C 254.668 43.381,254.167 41.787,253.958 41.694 C 253.890 41.664,253.833 41.533,253.833 41.403 C 253.833 41.273,253.758 41.167,253.667 41.167 C 253.575 41.167,253.500 41.017,253.500 40.833 C 253.500 40.650,253.425 40.500,253.333 40.500 C 253.242 40.500,253.167 40.404,253.167 40.286 C 253.167 39.911,251.223 37.667,250.899 37.667 C 250.812 37.667,250.632 37.517,250.500 37.333 C 250.368 37.150,250.126 37.000,249.963 37.000 C 249.800 37.000,249.667 36.943,249.667 36.873 C 249.667 36.699,248.410 36.167,247.999 36.167 C 247.816 36.167,247.667 36.092,247.667 36.000 C 247.667 35.908,247.404 35.833,247.083 35.833 C 246.762 35.833,246.500 35.766,246.500 35.683 C 246.500 35.290,240.808 35.046,231.041 35.020 L 223.499 35.000 223.541 55.708 M261.500 55.727 L 261.500 76.500 264.417 76.500 L 267.333 76.500 267.333 67.500 L 267.333 58.500 271.752 58.500 C 274.183 58.500,276.301 58.570,276.461 58.655 C 276.620 58.740,277.106 58.946,277.541 59.113 C 277.976 59.280,278.332 59.473,278.333 59.542 C 278.333 59.610,278.412 59.667,278.508 59.667 C 278.671 59.667,278.959 59.901,279.873 60.778 C 280.280 61.169,280.861 61.863,281.661 62.917 C 281.940 63.283,282.287 63.733,282.433 63.917 C 282.579 64.100,282.778 64.419,282.876 64.625 C 282.974 64.831,283.116 65.000,283.193 65.000 C 283.270 65.000,283.333 65.085,283.333 65.189 C 283.333 65.293,283.471 65.499,283.640 65.647 C 283.809 65.795,283.998 66.123,284.060 66.375 C 284.122 66.627,284.247 66.833,284.337 66.833 C 284.426 66.833,284.500 66.918,284.500 67.022 C 284.500 67.126,284.633 67.332,284.795 67.480 C 284.957 67.629,285.238 68.068,285.420 68.456 C 285.601 68.845,285.806 69.164,285.875 69.165 C 285.944 69.166,286.000 69.245,286.000 69.340 C 286.000 69.436,286.076 69.605,286.169 69.715 C 286.519 70.132,287.167 71.188,287.167 71.341 C 287.167 71.428,287.242 71.500,287.333 71.500 C 287.425 71.500,287.500 71.612,287.500 71.750 C 287.500 71.887,287.574 72.000,287.663 72.000 C 287.753 72.000,287.873 72.182,287.928 72.404 C 287.984 72.627,288.173 72.938,288.348 73.097 C 288.523 73.255,288.667 73.486,288.667 73.609 C 288.667 73.732,288.742 73.833,288.833 73.833 C 288.925 73.833,289.000 73.940,289.000 74.071 C 289.000 74.202,289.094 74.409,289.208 74.530 C 289.323 74.651,289.523 74.956,289.653 75.208 C 289.783 75.460,289.952 75.667,290.028 75.667 C 290.104 75.667,290.167 75.747,290.167 75.845 C 290.167 76.430,290.593 76.500,294.137 76.500 C 297.129 76.500,297.645 76.463,297.729 76.243 C 297.830 75.980,297.520 75.333,297.293 75.333 C 297.224 75.333,297.167 75.230,297.167 75.104 C 297.167 74.977,297.054 74.781,296.917 74.667 C 296.779 74.553,296.667 74.357,296.667 74.231 C 296.667 74.021,296.393 73.623,295.875 73.077 C 295.760 72.956,295.667 72.748,295.667 72.616 C 295.667 72.483,295.554 72.281,295.417 72.167 C 295.279 72.053,295.167 71.894,295.167 71.815 C 295.167 71.682,294.840 71.236,294.403 70.771 C 294.304 70.666,294.171 70.375,294.108 70.123 C 294.045 69.872,293.920 69.667,293.830 69.667 C 293.740 69.667,293.667 69.582,293.667 69.478 C 293.667 69.374,293.534 69.168,293.372 69.020 C 293.210 68.871,292.929 68.432,292.747 68.044 C 292.565 67.655,292.360 67.336,292.292 67.335 C 292.223 67.334,292.167 67.221,292.167 67.083 C 292.167 66.946,292.106 66.833,292.031 66.833 C 291.956 66.833,291.770 66.571,291.617 66.250 C 291.464 65.929,291.263 65.667,291.169 65.667 C 291.076 65.667,291.000 65.517,291.000 65.333 C 291.000 65.150,290.925 65.000,290.833 65.000 C 290.742 65.000,290.667 64.894,290.667 64.764 C 290.667 64.634,290.610 64.503,290.542 64.472 C 290.473 64.442,290.209 64.098,289.956 63.708 C 289.703 63.319,289.421 63.000,289.331 63.000 C 289.241 63.000,289.167 62.860,289.167 62.688 C 289.167 62.516,288.904 62.152,288.583 61.877 C 288.262 61.603,288.000 61.303,288.000 61.210 C 288.000 60.948,285.866 58.833,285.603 58.833 C 285.474 58.833,285.327 58.723,285.275 58.589 C 285.223 58.454,284.897 58.218,284.549 58.064 C 284.090 57.860,283.997 57.764,284.208 57.713 C 284.369 57.674,284.500 57.573,284.500 57.488 C 284.500 57.403,284.758 57.333,285.073 57.333 C 285.389 57.333,285.693 57.258,285.750 57.167 C 285.807 57.075,286.074 57.000,286.343 57.000 C 286.613 57.000,286.833 56.930,286.833 56.844 C 286.833 56.757,287.171 56.636,287.583 56.575 C 287.996 56.513,288.333 56.410,288.333 56.346 C 288.333 56.281,288.596 56.126,288.917 56.000 C 289.237 55.874,289.500 55.715,289.500 55.647 C 289.500 55.578,289.649 55.475,289.831 55.417 C 290.174 55.309,292.500 53.140,292.500 52.929 C 292.500 52.863,292.612 52.697,292.750 52.560 C 292.887 52.422,293.000 52.165,293.000 51.988 C 293.000 51.811,293.075 51.667,293.167 51.667 C 293.258 51.667,293.333 51.554,293.333 51.417 C 293.333 51.279,293.408 51.167,293.500 51.167 C 293.592 51.167,293.667 50.994,293.667 50.783 C 293.667 50.573,293.760 50.306,293.875 50.192 C 294.029 50.038,294.083 49.048,294.083 46.417 C 294.083 43.786,294.029 42.795,293.875 42.642 C 293.760 42.527,293.667 42.261,293.667 42.050 C 293.667 41.839,293.592 41.667,293.500 41.667 C 293.408 41.667,293.333 41.554,293.333 41.417 C 293.333 41.279,293.267 41.167,293.185 41.167 C 293.104 41.167,292.988 40.904,292.928 40.583 C 292.867 40.262,292.759 40.000,292.687 40.000 C 292.615 40.000,292.450 39.796,292.320 39.546 C 292.112 39.147,291.428 38.429,290.214 37.333 C 290.011 37.150,289.768 37.000,289.673 37.000 C 289.578 37.000,289.500 36.943,289.500 36.873 C 289.500 36.699,288.243 36.167,287.832 36.167 C 287.649 36.167,287.500 36.092,287.500 36.000 C 287.500 35.908,287.279 35.833,287.010 35.833 C 286.740 35.833,286.473 35.758,286.417 35.667 C 286.360 35.575,285.996 35.500,285.607 35.500 C 285.218 35.500,284.813 35.413,284.708 35.308 C 284.568 35.168,281.387 35.093,273.008 35.034 L 261.500 34.953 261.500 55.727 M302.912 35.204 C 302.867 35.321,302.850 44.642,302.874 55.917 L 302.917 76.417 305.768 76.462 C 308.032 76.498,308.659 76.460,308.810 76.278 C 308.952 76.107,308.990 70.764,308.959 55.565 L 308.917 35.083 305.955 35.038 C 303.676 35.003,302.974 35.041,302.912 35.204 M358.833 55.750 L 358.833 76.500 374.167 76.500 L 389.500 76.500 389.500 73.833 L 389.500 71.167 377.083 71.167 L 364.667 71.167 364.667 64.583 L 364.667 58.000 375.542 57.998 C 381.523 57.996,386.585 57.950,386.792 57.895 C 387.160 57.796,387.167 57.749,387.167 55.231 L 387.167 52.667 375.917 52.667 L 364.667 52.667 364.667 46.583 L 364.667 40.500 376.667 40.500 L 388.667 40.500 388.667 37.750 L 388.667 35.000 373.750 35.000 L 358.833 35.000 358.833 55.750 M243.917 40.667 C 243.973 40.758,244.240 40.833,244.510 40.833 C 244.779 40.833,245.000 40.908,245.000 41.000 C 245.000 41.092,245.150 41.167,245.333 41.167 C 245.517 41.167,245.667 41.242,245.667 41.333 C 245.667 41.425,245.773 41.500,245.904 41.500 C 246.247 41.500,247.528 42.834,247.917 43.597 C 248.100 43.956,248.306 44.275,248.375 44.306 C 248.444 44.336,248.500 44.538,248.500 44.754 C 248.500 44.970,248.575 45.193,248.667 45.250 C 248.763 45.309,248.833 46.193,248.833 47.333 C 248.833 48.474,248.763 49.357,248.667 49.417 C 248.575 49.473,248.500 49.703,248.500 49.927 C 248.500 50.150,248.431 50.333,248.347 50.333 C 248.262 50.333,248.142 50.566,248.080 50.850 C 247.953 51.428,246.335 53.167,245.924 53.167 C 245.782 53.167,245.667 53.242,245.667 53.333 C 245.667 53.425,245.517 53.500,245.333 53.500 C 245.150 53.500,245.000 53.575,245.000 53.667 C 245.000 53.758,244.819 53.833,244.597 53.833 C 244.376 53.833,244.168 53.913,244.135 54.011 C 244.045 54.281,240.042 54.525,234.375 54.605 L 229.333 54.676 229.333 47.588 L 229.333 40.500 236.573 40.500 C 241.220 40.500,243.851 40.560,243.917 40.667 M282.833 40.667 C 282.833 40.758,283.096 40.833,283.417 40.833 C 283.737 40.833,284.000 40.908,284.000 41.000 C 284.000 41.092,284.188 41.167,284.417 41.167 C 284.646 41.167,284.833 41.242,284.833 41.333 C 284.833 41.425,284.931 41.500,285.051 41.500 C 285.265 41.500,286.214 42.208,286.569 42.633 C 286.669 42.752,286.919 43.030,287.125 43.250 C 287.331 43.471,287.500 43.730,287.500 43.826 C 287.500 43.922,287.570 44.000,287.656 44.000 C 287.743 44.000,287.859 44.356,287.915 44.792 C 287.971 45.227,288.088 45.714,288.175 45.873 C 288.373 46.234,288.384 47.333,288.190 47.333 C 288.111 47.333,288.000 47.727,287.943 48.207 C 287.886 48.688,287.763 49.107,287.670 49.138 C 287.576 49.169,287.500 49.301,287.500 49.431 C 287.500 49.560,287.425 49.667,287.333 49.667 C 287.242 49.667,287.167 49.770,287.167 49.897 C 287.167 50.205,285.955 51.439,285.516 51.578 C 285.324 51.639,285.167 51.759,285.167 51.845 C 285.167 51.930,285.017 52.000,284.833 52.000 C 284.650 52.000,284.500 52.075,284.500 52.167 C 284.500 52.258,284.313 52.333,284.083 52.333 C 283.854 52.333,283.667 52.408,283.667 52.500 C 283.667 52.592,283.382 52.667,283.033 52.667 C 282.685 52.667,282.318 52.749,282.218 52.849 C 282.095 52.972,279.660 53.061,274.685 53.124 L 267.333 53.218 267.333 46.859 L 267.333 40.500 275.083 40.500 C 280.139 40.500,282.833 40.558,282.833 40.667 M148.917 43.000 C 148.973 43.092,149.274 43.167,149.585 43.167 C 150.123 43.167,150.384 43.245,151.609 43.773 C 151.897 43.898,152.237 44.000,152.363 44.000 C 152.490 44.000,152.701 44.150,152.833 44.333 C 152.965 44.517,153.135 44.667,153.211 44.667 C 153.499 44.667,155.333 46.532,155.333 46.826 C 155.333 46.922,155.407 47.000,155.497 47.000 C 155.587 47.000,155.707 47.188,155.765 47.417 C 155.822 47.646,155.936 47.833,156.018 47.833 C 156.100 47.833,156.167 47.983,156.167 48.167 C 156.167 48.350,156.242 48.500,156.333 48.500 C 156.425 48.500,156.500 48.614,156.500 48.752 C 156.500 48.891,156.572 49.135,156.660 49.294 C 156.919 49.763,157.204 51.167,157.285 52.375 C 157.327 52.994,157.430 53.500,157.514 53.500 C 157.598 53.500,157.667 54.430,157.667 55.583 C 157.667 56.732,157.598 57.667,157.514 57.667 C 157.430 57.667,157.328 58.135,157.286 58.708 C 157.189 60.058,156.803 62.000,156.633 62.000 C 156.560 62.000,156.500 62.150,156.500 62.333 C 156.500 62.517,156.425 62.667,156.333 62.667 C 156.242 62.667,156.167 62.817,156.167 63.000 C 156.167 63.183,156.100 63.333,156.018 63.333 C 155.936 63.333,155.819 63.540,155.757 63.792 C 155.695 64.044,155.501 64.400,155.326 64.583 C 153.726 66.260,152.966 66.929,152.375 67.183 C 152.077 67.310,151.833 67.471,151.833 67.541 C 151.833 67.610,151.683 67.667,151.500 67.667 C 151.317 67.667,151.167 67.731,151.167 67.809 C 151.167 68.049,148.995 68.397,147.500 68.397 C 146.005 68.397,143.833 68.049,143.833 67.809 C 143.833 67.731,143.683 67.667,143.500 67.667 C 143.317 67.667,143.167 67.592,143.167 67.500 C 143.167 67.408,143.063 67.333,142.937 67.333 C 142.811 67.333,142.614 67.221,142.500 67.083 C 142.386 66.946,142.157 66.833,141.991 66.833 C 141.825 66.833,141.642 66.683,141.583 66.500 C 141.525 66.317,141.418 66.167,141.346 66.167 C 141.207 66.167,140.469 65.433,139.754 64.583 C 139.522 64.308,139.202 63.765,139.041 63.376 C 138.881 62.986,138.694 62.668,138.625 62.667 C 138.556 62.667,138.500 62.517,138.500 62.333 C 138.500 62.150,138.425 62.000,138.333 62.000 C 138.242 62.000,138.167 61.819,138.167 61.597 C 138.167 61.376,138.093 61.169,138.004 61.139 C 137.914 61.108,137.790 60.425,137.729 59.619 C 137.667 58.814,137.553 58.116,137.475 58.068 C 137.290 57.954,137.290 53.380,137.475 53.265 C 137.553 53.217,137.667 52.519,137.729 51.714 C 137.790 50.909,137.914 50.225,138.004 50.194 C 138.093 50.164,138.167 49.958,138.167 49.736 C 138.167 49.515,138.242 49.333,138.333 49.333 C 138.425 49.333,138.500 49.146,138.500 48.917 C 138.500 48.688,138.575 48.500,138.667 48.500 C 138.758 48.500,138.833 48.350,138.833 48.167 C 138.833 47.983,138.908 47.833,139.000 47.833 C 139.092 47.833,139.167 47.732,139.167 47.609 C 139.167 47.485,139.303 47.228,139.469 47.036 C 139.635 46.845,139.916 46.486,140.094 46.240 C 140.271 45.994,140.513 45.708,140.631 45.605 C 140.749 45.501,140.949 45.323,141.077 45.208 C 141.205 45.094,141.362 45.000,141.427 45.000 C 141.491 45.000,141.666 44.868,141.814 44.706 C 141.962 44.544,142.383 44.271,142.750 44.098 C 143.117 43.926,143.547 43.720,143.706 43.642 C 143.865 43.564,144.146 43.500,144.331 43.500 C 144.516 43.500,144.667 43.425,144.667 43.333 C 144.667 43.242,145.004 43.167,145.417 43.167 C 145.829 43.167,146.167 43.092,146.167 43.000 C 146.167 42.903,146.719 42.833,147.490 42.833 C 148.218 42.833,148.860 42.908,148.917 43.000 " stroke="none" fill="#5b5c5c" fill-rule="evenodd"></path><path id="path1" d="M15.873 52.832 C 14.663 53.570,14.668 53.540,14.668 60.333 C 14.668 68.818,14.008 68.167,22.611 68.167 C 30.903 68.167,30.365 68.738,30.296 60.000 C 30.246 53.518,30.226 53.384,29.250 52.816 C 28.431 52.338,16.659 52.353,15.873 52.832 M35.157 52.877 C 33.840 53.541,33.834 53.572,33.834 60.183 C 33.833 68.802,33.275 68.271,42.141 68.081 L 47.869 67.958 48.432 67.464 C 49.311 66.692,49.358 66.277,49.301 59.750 C 49.243 53.106,49.259 53.184,47.935 52.726 C 46.682 52.292,36.068 52.417,35.157 52.877 M56.549 52.791 C 57.264 52.822,58.389 52.822,59.049 52.790 C 59.710 52.759,59.125 52.733,57.750 52.733 C 56.375 52.734,55.835 52.759,56.549 52.791 M60.667 59.404 L 60.667 66.167 58.578 66.167 L 56.489 66.167 55.911 66.744 C 54.331 68.325,55.397 69.698,58.279 69.792 C 61.020 69.881,61.160 70.053,58.583 70.166 C 56.279 70.268,55.888 70.392,55.538 71.133 C 55.145 71.966,55.276 72.728,55.912 73.307 L 56.491 73.833 58.579 73.833 L 60.667 73.833 60.667 80.403 C 60.667 84.016,60.712 87.091,60.768 87.236 C 60.920 87.634,66.108 87.625,66.883 87.225 C 68.459 86.414,68.355 87.731,68.298 69.379 L 68.250 53.674 67.788 53.212 L 67.326 52.750 63.997 52.696 L 60.667 52.642 60.667 59.404 M23.619 55.115 C 23.929 55.500,23.996 55.818,24.036 57.079 L 24.083 58.583 25.600 58.667 C 27.554 58.774,28.152 59.183,28.161 60.417 C 28.169 61.700,27.656 62.069,25.725 62.167 L 24.083 62.250 24.000 63.417 C 23.788 66.387,20.872 66.420,20.667 63.454 L 20.583 62.250 19.377 62.156 C 16.275 61.915,16.379 58.951,19.500 58.678 L 20.583 58.583 20.632 57.087 C 20.709 54.714,22.399 53.598,23.619 55.115 M46.702 59.483 C 47.806 60.469,47.173 62.130,45.578 62.429 C 44.040 62.717,37.386 62.275,36.939 61.854 C 36.137 61.101,36.214 60.159,37.141 59.376 C 37.574 59.009,37.670 59.002,41.872 59.001 L 46.161 59.000 46.702 59.483 M65.333 66.625 C 66.521 67.219,66.601 68.551,65.495 69.304 L 64.917 69.698 60.750 69.583 C 56.233 69.459,56.048 69.420,55.672 68.513 C 55.393 67.839,55.690 67.083,56.403 66.648 C 57.154 66.190,64.425 66.172,65.333 66.625 M65.779 70.899 C 66.430 71.460,66.433 72.476,65.784 73.125 L 65.326 73.583 61.122 73.627 C 56.501 73.675,56.333 73.646,55.784 72.705 C 55.397 72.043,55.503 71.469,56.114 70.902 L 56.549 70.500 60.932 70.500 L 65.315 70.500 65.779 70.899 M16.486 71.983 C 14.678 72.572,14.667 72.619,14.667 79.667 C 14.667 86.163,14.664 86.143,15.581 87.000 L 16.027 87.417 22.397 87.464 L 28.767 87.511 29.386 86.892 C 30.332 85.946,30.361 85.704,30.303 79.242 C 30.246 72.911,30.240 72.872,29.289 72.268 C 28.856 71.993,17.248 71.734,16.486 71.983 M35.661 71.981 C 33.810 72.584,33.759 72.774,33.698 79.278 C 33.616 88.059,33.075 87.508,41.778 87.507 L 47.892 87.506 48.376 87.045 C 49.497 85.977,49.525 85.775,49.468 79.363 C 49.413 73.127,49.388 72.945,48.500 72.319 C 48.039 71.994,36.551 71.691,35.661 71.981 M42.987 73.931 C 43.423 74.298,43.500 74.478,43.500 75.131 C 43.500 76.708,41.971 77.398,40.798 76.350 C 39.193 74.916,41.339 72.545,42.987 73.931 M26.224 75.685 C 27.356 76.201,27.292 77.640,26.083 78.833 C 25.579 79.331,25.167 79.809,25.167 79.896 C 25.167 79.982,25.579 80.486,26.083 81.014 C 27.603 82.608,27.219 84.365,25.328 84.465 C 24.421 84.513,24.412 84.508,23.506 83.590 C 22.419 82.488,22.410 82.487,21.586 83.331 C 20.404 84.542,19.040 84.538,18.412 83.323 C 17.998 82.524,18.203 81.892,19.206 80.877 L 20.071 80.001 19.305 79.209 C 17.978 77.837,17.847 76.939,18.852 76.093 C 19.667 75.408,20.301 75.510,21.385 76.500 C 22.485 77.506,22.494 77.506,23.193 76.653 C 24.093 75.555,25.178 75.208,26.224 75.685 M46.642 78.588 C 47.525 79.331,47.433 80.699,46.458 81.329 C 45.520 81.934,37.549 81.625,36.881 80.957 C 36.074 80.149,36.357 78.758,37.417 78.324 C 37.600 78.249,39.638 78.183,41.946 78.177 L 46.141 78.167 46.642 78.588 M43.033 82.781 C 44.058 83.764,43.369 85.667,41.988 85.667 C 41.030 85.667,40.258 84.936,40.258 84.030 C 40.258 82.564,41.991 81.784,43.033 82.781 " stroke="none" fill="#e4574f" fill-rule="evenodd"></path><path id="path2" d="M24.993 23.667 C 13.047 23.759,13.691 23.694,13.045 24.877 C 12.776 25.370,12.750 26.040,12.750 32.583 C 12.750 40.695,12.729 40.561,14.091 41.250 C 15.097 41.759,65.961 41.669,66.681 41.157 C 67.680 40.445,67.684 40.404,67.631 32.173 L 67.583 24.674 67.151 24.242 C 66.914 24.004,66.426 23.740,66.068 23.655 C 65.413 23.499,45.884 23.505,24.993 23.667 M21.750 54.651 C 20.908 55.019,20.683 55.509,20.632 57.087 L 20.583 58.583 19.500 58.678 C 16.379 58.951,16.275 61.915,19.377 62.156 L 20.583 62.250 20.667 63.454 C 20.872 66.420,23.788 66.387,24.000 63.417 L 24.083 62.250 25.725 62.167 C 27.656 62.069,28.169 61.700,28.161 60.417 C 28.152 59.183,27.554 58.774,25.600 58.667 L 24.083 58.583 24.036 57.079 C 23.970 54.993,23.095 54.064,21.750 54.651 M37.141 59.376 C 36.214 60.159,36.137 61.101,36.939 61.854 C 37.386 62.275,44.040 62.717,45.578 62.429 C 47.173 62.130,47.806 60.469,46.702 59.483 L 46.161 59.000 41.872 59.001 C 37.670 59.002,37.574 59.009,37.141 59.376 M56.403 66.648 C 55.690 67.083,55.393 67.839,55.672 68.513 C 56.048 69.420,56.233 69.459,60.750 69.583 L 64.917 69.698 65.495 69.304 C 66.601 68.551,66.521 67.219,65.333 66.625 C 64.425 66.172,57.154 66.190,56.403 66.648 M56.114 70.902 C 55.503 71.469,55.397 72.043,55.784 72.705 C 56.333 73.646,56.501 73.675,61.122 73.627 L 65.326 73.583 65.784 73.125 C 66.433 72.476,66.430 71.460,65.779 70.899 L 65.315 70.500 60.932 70.500 L 56.549 70.500 56.114 70.902 M41.250 73.658 C 40.133 74.115,39.893 75.542,40.798 76.350 C 41.971 77.398,43.500 76.708,43.500 75.131 C 43.500 73.911,42.397 73.188,41.250 73.658 M24.167 75.743 C 23.938 75.870,23.499 76.279,23.193 76.653 C 22.494 77.506,22.485 77.506,21.385 76.500 C 20.301 75.510,19.667 75.408,18.852 76.093 C 17.847 76.939,17.978 77.837,19.305 79.209 L 20.071 80.001 19.206 80.877 C 18.203 81.892,17.998 82.524,18.412 83.323 C 19.040 84.538,20.404 84.542,21.586 83.331 C 22.410 82.487,22.419 82.488,23.506 83.590 C 24.412 84.508,24.421 84.513,25.328 84.465 C 27.219 84.365,27.603 82.608,26.083 81.014 C 25.579 80.486,25.167 79.982,25.167 79.896 C 25.167 79.809,25.579 79.331,26.083 78.833 C 27.987 76.954,26.453 74.481,24.167 75.743 M37.417 78.324 C 36.357 78.758,36.074 80.149,36.881 80.957 C 37.549 81.625,45.520 81.934,46.458 81.329 C 47.433 80.699,47.525 79.331,46.642 78.588 L 46.141 78.167 41.946 78.177 C 39.638 78.183,37.600 78.249,37.417 78.324 M41.250 82.491 C 40.133 82.948,39.893 84.375,40.798 85.184 C 41.969 86.230,43.500 85.522,43.500 83.935 C 43.500 82.722,42.404 82.019,41.250 82.491 " stroke="none" fill="#f0f0ef" fill-rule="evenodd"></path><path id="path3" d="M9.086 15.956 C 8.904 16.002,8.624 16.199,8.464 16.395 C 8.304 16.590,8.096 16.841,8.003 16.951 C 7.769 17.228,7.766 92.667,8.000 92.667 C 8.092 92.667,8.167 92.801,8.167 92.965 C 8.167 93.129,8.469 93.542,8.839 93.882 L 9.511 94.500 40.255 94.500 L 70.999 94.500 71.618 93.917 C 71.958 93.596,72.295 93.333,72.368 93.333 C 72.441 93.333,72.500 76.132,72.500 55.108 L 72.500 16.883 71.999 16.358 L 71.497 15.833 40.457 15.853 C 23.385 15.863,9.268 15.910,9.086 15.956 M69.000 32.583 L 69.000 43.833 40.000 43.833 L 11.000 43.833 11.000 32.583 L 11.000 21.333 40.000 21.333 L 69.000 21.333 69.000 32.583 M29.250 52.816 C 30.226 53.384,30.246 53.518,30.296 60.000 C 30.365 68.738,30.903 68.167,22.611 68.167 C 14.008 68.167,14.668 68.818,14.668 60.333 C 14.668 51.776,13.939 52.497,22.583 52.513 C 28.139 52.523,28.800 52.553,29.250 52.816 M47.935 52.726 C 49.259 53.184,49.243 53.106,49.301 59.750 C 49.358 66.277,49.311 66.692,48.432 67.464 L 47.869 67.958 42.141 68.081 C 33.275 68.271,33.833 68.802,33.834 60.183 C 33.834 51.906,33.231 52.502,41.599 52.505 C 45.879 52.506,47.459 52.561,47.935 52.726 M59.049 52.790 C 58.389 52.822,57.264 52.822,56.549 52.791 C 55.835 52.759,56.375 52.734,57.750 52.733 C 59.125 52.733,59.710 52.759,59.049 52.790 M67.788 53.212 L 68.250 53.674 68.298 69.379 C 68.355 87.731,68.459 86.414,66.883 87.225 C 66.108 87.625,60.920 87.634,60.768 87.236 C 60.712 87.091,60.667 84.016,60.667 80.403 L 60.667 73.833 58.579 73.833 L 56.491 73.833 55.912 73.307 C 55.276 72.728,55.145 71.966,55.538 71.133 C 55.888 70.392,56.279 70.268,58.583 70.166 C 61.160 70.053,61.020 69.881,58.279 69.792 C 55.397 69.698,54.331 68.325,55.911 66.744 L 56.489 66.167 58.578 66.167 L 60.667 66.167 60.667 59.404 L 60.667 52.642 63.997 52.696 L 67.326 52.750 67.788 53.212 M29.289 72.268 C 30.240 72.872,30.246 72.911,30.303 79.242 C 30.361 85.704,30.332 85.946,29.386 86.892 L 28.767 87.511 22.397 87.464 L 16.027 87.417 15.581 87.000 C 14.664 86.143,14.667 86.163,14.667 79.667 C 14.667 72.619,14.678 72.572,16.486 71.983 C 17.248 71.734,28.856 71.993,29.289 72.268 M48.500 72.319 C 49.388 72.945,49.413 73.127,49.468 79.363 C 49.525 85.775,49.497 85.977,48.376 87.045 L 47.892 87.506 41.778 87.507 C 33.075 87.508,33.616 88.059,33.698 79.278 C 33.759 72.774,33.810 72.584,35.661 71.981 C 36.551 71.691,48.039 71.994,48.500 72.319 " stroke="none" fill="#942c7c" fill-rule="evenodd"></path><path id="path4" d="M11.000 32.583 L 11.000 43.833 40.000 43.833 L 69.000 43.833 69.000 32.583 L 69.000 21.333 40.000 21.333 L 11.000 21.333 11.000 32.583 M66.068 23.655 C 66.426 23.740,66.914 24.004,67.151 24.242 L 67.583 24.674 67.631 32.173 C 67.684 40.404,67.680 40.445,66.681 41.157 C 65.961 41.669,15.097 41.759,14.091 41.250 C 12.729 40.561,12.750 40.695,12.750 32.583 C 12.750 26.040,12.776 25.370,13.045 24.877 C 13.691 23.694,13.047 23.759,24.993 23.667 C 45.884 23.505,65.413 23.499,66.068 23.655 " stroke="none" fill="#85c445" fill-rule="evenodd"></path></g></svg>