<?xml version="1.0" standalone="no"?>
<!DOCTYPE svg PUBLIC "-//W3C//DTD SVG 20010904//EN"
 "http://www.w3.org/TR/2001/REC-SVG-20010904/DTD/svg10.dtd">
<svg version="1.0" xmlns="http://www.w3.org/2000/svg"
 width="1356.000000pt" height="346.000000pt" viewBox="0 0 1356.000000 346.000000"
 preserveAspectRatio="xMidYMid meet">

<g transform="translate(0.000000,346.000000) scale(0.100000,-0.100000)"
fill="#000000" stroke="none">
<path d="M296 2899 l-26 -20 0 -1279 0 -1278 26 -31 26 -31 1042 0 1043 0 21
23 22 23 0 1285 c0 1146 -2 1287 -16 1307 l-15 22 -1048 0 c-1045 0 -1048 0
-1075 -21z m2044 -544 l0 -385 -985 0 -985 0 0 385 0 385 985 0 985 0 0 -385z
m-1346 -696 l26 -20 0 -218 c0 -218 0 -218 -25 -245 l-24 -26 -201 0 c-209 0
-249 7 -264 45 -3 9 -6 110 -6 224 0 216 2 226 45 249 13 7 95 12 221 12 189
0 203 -1 228 -21z m656 -5 c12 -12 15 -52 15 -235 l0 -221 -29 -24 -28 -25
-210 3 c-207 3 -210 3 -229 27 -17 21 -19 41 -19 235 0 221 2 230 45 255 31
18 435 4 455 -15z m580 -464 c24 -24 25 -38 4 -68 -14 -21 -21 -22 -166 -22
-127 0 -154 3 -170 17 -24 21 -23 48 2 73 18 18 33 20 165 20 132 0 147 -2
165 -20z m2 -137 c24 -21 23 -48 -2 -73 -18 -18 -33 -20 -165 -20 -132 0 -147
2 -165 20 -24 24 -25 47 -3 72 14 16 33 18 166 18 126 0 153 -3 169 -17z
m-1233 -57 c20 -18 21 -28 21 -235 -1 -154 -4 -221 -13 -232 -26 -34 -53 -38
-246 -38 -201 0 -240 6 -255 44 -3 9 -6 111 -6 226 l0 210 25 25 25 25 214 -3
c194 -3 216 -5 235 -22z m646 -1 c25 -24 25 -24 25 -235 l0 -212 -29 -29 -29
-29 -197 0 c-204 0 -244 7 -259 45 -3 9 -6 111 -6 226 0 281 -22 259 260 259
211 0 211 0 235 -25z"/>
<path d="M4815 2286 c-172 -40 -310 -138 -399 -285 -115 -189 -140 -512 -57
-745 52 -149 164 -276 302 -344 104 -51 206 -72 344 -72 338 0 570 172 657
488 31 110 31 372 0 483 -31 114 -83 209 -158 289 -78 83 -150 128 -259 166
-70 24 -98 28 -225 30 -98 3 -164 -1 -205 -10z m320 -293 c70 -23 154 -108
183 -186 47 -124 48 -338 2 -460 -39 -103 -120 -182 -214 -209 -62 -17 -164
-14 -226 7 -77 26 -168 117 -199 200 -34 91 -46 207 -32 315 15 115 41 186 90
242 94 106 243 140 396 91z"/>
<path d="M2935 2268 c-3 -7 -4 -326 -3 -708 l3 -695 155 0 155 0 3 210 2 210
98 98 c53 53 100 96 104 95 4 -2 88 -140 186 -308 l177 -305 189 -3 c196 -3
214 1 200 38 -3 8 -122 196 -266 418 l-260 403 190 197 c104 108 200 206 212
217 12 11 40 41 61 66 64 77 60 79 -170 79 l-196 -1 -255 -279 c-140 -154
-258 -280 -262 -280 -4 0 -9 125 -10 278 l-3 277 -153 3 c-116 2 -154 0 -157
-10z"/>
<path d="M5912 2268 c-17 -17 -17 -1379 0 -1396 8 -8 57 -12 155 -12 l143 0 1
448 c0 246 4 438 8 427 4 -11 54 -212 112 -448 l104 -427 154 2 155 3 106 433
c59 237 110 435 113 439 4 3 7 -192 7 -435 l0 -442 143 0 c98 0 147 4 155 12
19 19 17 1381 -2 1397 -9 8 -79 11 -231 9 l-218 -3 -111 -422 c-61 -233 -113
-423 -116 -423 -3 0 -50 170 -105 378 -54 207 -105 398 -113 425 l-14 47 -217
0 c-155 0 -220 -3 -229 -12z"/>
<path d="M11245 2266 c-206 -40 -350 -146 -435 -320 -64 -130 -75 -187 -74
-371 1 -187 17 -266 86 -405 76 -152 208 -256 373 -291 98 -21 277 -17 360 9
174 53 325 212 373 394 l10 38 -41 10 c-23 6 -58 15 -77 21 -55 14 -57 13 -79
-54 -58 -175 -199 -277 -380 -277 -221 1 -367 121 -428 350 -24 93 -24 311 1
405 28 106 67 174 135 237 89 83 145 102 296 103 111 0 124 -2 176 -28 71 -34
132 -100 171 -183 16 -35 33 -64 36 -64 43 3 158 40 160 52 1 8 -15 50 -37 94
-44 88 -120 172 -198 217 -112 64 -288 90 -428 63z"/>
<path d="M7590 1571 l0 -691 90 0 90 0 0 279 0 279 253 5 c142 3 274 11 302
18 133 32 211 92 267 207 32 64 33 71 33 187 0 114 -2 123 -31 186 -51 107
-117 160 -241 195 -47 14 -125 18 -410 21 l-353 5 0 -691z m736 507 c47 -26
100 -92 114 -144 8 -26 11 -71 7 -110 -7 -92 -43 -149 -122 -189 l-59 -30
-248 -3 -248 -4 0 252 0 251 263 -3 c225 -3 266 -5 293 -20z"/>
<path d="M8870 1571 l0 -691 90 0 90 0 0 305 0 305 158 0 c144 0 161 -2 207
-24 85 -39 162 -139 386 -498 l54 -88 112 0 112 0 -105 168 c-197 310 -237
362 -327 422 -34 23 -53 42 -46 44 8 2 37 9 64 16 167 38 267 137 296 291 27
149 -47 320 -165 381 -90 46 -129 51 -538 55 l-388 5 0 -691z m797 496 c74
-39 106 -90 111 -176 4 -78 -21 -138 -78 -182 -62 -50 -127 -59 -402 -59
l-248 0 0 226 0 225 283 -3 282 -3 52 -28z"/>
<path d="M10280 1570 l0 -690 90 0 90 0 0 690 0 690 -90 0 -90 0 0 -690z"/>
<path d="M12170 1570 l0 -690 515 0 515 0 0 80 0 80 -425 0 -425 0 0 235 0
235 380 0 380 0 0 80 0 80 -380 0 -380 0 0 215 0 215 405 0 405 0 0 80 0 80
-495 0 -495 0 0 -690z"/>
</g>
</svg>
